<?xml version="1.0" standalone="no"?><svg xmlns="http://www.w3.org/2000/svg" viewBox="0 0 1440 320"><path fill="#0099ff" fill-opacity="1" d="M0,224L17.1,197.3C34.3,171,69,117,103,112C137.1,107,171,149,206,181.3C240,213,274,235,309,213.3C342.9,192,377,128,411,117.3C445.7,107,480,149,514,176C548.6,203,583,213,617,202.7C651.4,192,686,160,720,176C754.3,192,789,256,823,266.7C857.1,277,891,235,926,181.3C960,128,994,64,1029,69.3C1062.9,75,1097,149,1131,192C1165.7,235,1200,245,1234,234.7C1268.6,224,1303,192,1337,160C1371.4,128,1406,96,1423,80L1440,64L1440,320L1422.9,320C1405.7,320,1371,320,1337,320C1302.9,320,1269,320,1234,320C1200,320,1166,320,1131,320C1097.1,320,1063,320,1029,320C994.3,320,960,320,926,320C891.4,320,857,320,823,320C788.6,320,754,320,720,320C685.7,320,651,320,617,320C582.9,320,549,320,514,320C480,320,446,320,411,320C377.1,320,343,320,309,320C274.3,320,240,320,206,320C171.4,320,137,320,103,320C68.6,320,34,320,17,320L0,320Z"></path></svg>